# xmcd
#
# Track frame offsets:
#	150
#	18768
#	38812
#	54196
#	61801
#	69940
#
# Disc length: 1235 seconds
#
# Revision: 0
# Processed by: cddbd v1.4PL0 Copyright (c) Steve Scherf et al.
# Submitted via: dBpowerAMP V4.0
#
DISCID=3d04d106
DTITLE=Papa M - Papa M Sings
DYEAR=2001
DGENRE=Country
TTITLE0=Jaded Lover
TTITLE1=Pissing In The Wind
TTITLE2=I of Mine
TTITLE3=Who I Am
TTITLE4=True Love
TTITLE5=London Homesick Blues
EXTD=
EXTT0=
EXTT1=
EXTT2=
EXTT3=
EXTT4=
EXTT5=
PLAYORDER=
